<svg xmlns="http://www.w3.org/2000/svg" width="7" height="58" viewBox="0 0 7 58">
    <g fill="none" fill-rule="evenodd" stroke-linecap="round" stroke-linejoin="round">
        <g stroke="#FCCD03" stroke-width="1.5">
            <g>
                <path d="M171 29l3.824 3.57c1.122 1.046 1.182 2.804.136 3.925-.044.047-.09.092-.136.136l-1.648 1.538c-1.122 1.047-1.182 2.805-.136 3.926.044.047.09.092.136.136l1.648 1.538c1.122 1.047 1.182 2.805.136 3.926-.044.047-.09.092-.136.136l-1.648 1.538c-1.122 1.047-1.182 2.805-.136 3.926.044.047.09.092.136.136l1.648 1.538c1.122 1.047 1.182 2.805.136 3.926-.044.047-.09.092-.136.136l-1.648 1.538c-1.122 1.047-1.182 2.805-.136 3.926.044.047.09.092.136.136l1.648 1.538c1.122 1.047 1.182 2.805.136 3.926-.044.047-.09.092-.136.136l-1.648 1.538c-1.122 1.047-1.182 2.805-.136 3.926.044.047.09.092.136.136l1.648 1.538c1.122 1.047 1.182 2.805.136 3.926-.044.047-.09.092-.136.136L171 85h0" transform="translate(-301 -475) translate(130 447) matrix(-1 0 0 1 348 0)"/>
            </g>
        </g>
    </g>
</svg>
